<svg xmlns="http://www.w3.org/2000/svg" viewBox="0 0 180 150"><path d="M144.3 65.2c-4.2 0-8.2.7-11.9 1.9l-9.2-15.4h23.1c3.7 0 6.7-3 6.7-6.7v-9c0-3.7-3-6.7-6.7-6.7h-12.7c-1.9 0-3.7.8-5 2.2L118 43.2l-6.4-10.7c-1.2-2-3.4-3.3-5.8-3.3H83.4c-2.5 0-4.5 2-4.5 4.5v4.5c0 2.5 2 4.5 4.5 4.5H102l5.4 9H64.3c-5-6.5-12.6-11.2-28.1-11.2H20.7c-3.8 0-7 3.1-6.9 6.9.1 3.7 3.1 6.6 6.7 6.6h15.7c6.9 0 10.9 3.1 13.4 7l-3.2 5.8c-3.7-1.1-7.5-1.6-11.6-1.5C16 65.9.7 81.4.3 100.3c-.5 20.2 15.8 36.8 35.9 36.8 16.7 0 30.8-11.5 34.8-27h23.7c3.8 0 6.9-3.2 6.7-7-.6-13.2 4.9-26.3 15.8-35.1l3.5 5.8c-7.8 6.6-12.7 16.5-12.6 27.6.1 19.5 16.1 35.5 35.6 35.7 20.1.2 36.5-16.1 36.3-36.3-.2-19.5-16.1-35.5-35.7-35.6zM36.2 123.6c-12.4 0-22.5-10.1-22.5-22.5s10.1-22.5 22.5-22.5c1.2 0 2.4.1 3.5.3L28 100.1c-2.5 4.5.8 10 5.9 10h22.8c-3.4 8-11.3 13.5-20.5 13.5zm109.1 0c-12.9.7-23.7-9.6-23.7-22.4 0-6 2.4-11.5 6.2-15.5l13.9 23.1c1.3 2.1 4 2.8 6.2 1.5l3.9-2.3c2.1-1.3 2.8-4 1.5-6.2l-13.6-22.7c1.5-.3 3-.4 4.5-.4 12.8 0 23.1 10.7 22.4 23.7-.7 11.4-9.9 20.6-21.3 21.2z" fill="#c5351c"/></svg>